<svg xmlns="http://www.w3.org/2000/svg" version="1.1" id="Layer_1" viewBox="0 0 491.52 491.52" width="491.52" height="491.52"><metadata><rdf:RDF xmlns:rdf="http://www.w3.org/1999/02/22-rdf-syntax-ns#" xmlns:dc="http://purl.org/dc/elements/1.1/"><rdf:Description><dc:creator>RealFaviconGenerator</dc:creator><dc:source>https://realfavicongenerator.net</dc:source></rdf:Description></rdf:RDF></metadata><path d="M214.32,152.88s2.79,1.28,3.35,1.57c11.68,5.84,26.4,6.52,39.18,4.36,6.95-1.17,13.02-4.15,18.43-8.57v263.88c0,1.84-2.47,4.83-3.84,6-10.1,8.71-34.45,8.19-46.45,3.96-4.58-1.61-10.68-5.36-10.68-10.92V152.88h.01ZM225.36,186.24c-.14-4.51.19-9.06,0-13.57-.05-1.29-.15-4.73-.51-5.73-.49-1.4-2.19-1.44-3.49-1.54,0,3.56-.07,7-.06,10.62,0,.69-.03,1.53-.02,2.17.03,1.82-.27,4.54.05,6.2.21,1.08,3.01,1.67,4.02,1.85h0ZM229.92,166.8c-.66,2.99-.4,5.98-.47,9.01-.08,3.25-.45,7.02,0,10.29.24,1.68,1.85,2.06,3.23,1.6-.03-4.85.41-9.92.1-14.77-.14-2.21-.28-5.64-2.88-6.12h.01ZM238.08,188.88c.87-.67.73-1.99.71-2.99-.07-3.94.06-7.88-.12-11.8-.08-1.77.57-5.96-.83-5.61-.48,2.56-.32,5.2-.39,7.8-.05,1.7-.51,10.81.04,11.64.15.24,0,.2.59.96ZM219.84,196.56c15.5,6.37,34.28,6.12,49.81,0l-.13-5.53s-7.39,2.79-11.27,3.49c-8.96,1.6-18.45,1.66-27.41.04-3.79-.69-11-3.28-11-3.28v5.28h0ZM219.84,207.6v4.92s1.33.79,2.03,1.09c10.84,4.53,32.71,4.58,43.75.78,1.37-.47,4.13-1.87,4.13-1.87v-4.56c-.18-.23-.2-.28-.5-.27-.7.02-3.67,1.24-4.73,1.52-14.6,3.84-30.44,3.32-44.69-1.61h.01ZM225.06,222.3c-.97-.21-3.8-1.79-3.79-.19-.13,31.84.1,63.72.26,95.52.07,13-.18,26.04.11,39.01.83,1,1.9,1.7,3.12,2.15.24-.15.31-.31.36-.59.2-1.21-.04-3.23,0-4.57.85-43.13-.13-86.59.26-129.84l-.31-1.49ZM229.83,223.22c-.35.1-.41.49-.4.81-.37,44.32.04,88.64,0,132.98.34,2.19-.16,4.28,2.91,3.6l.47-4.56-.13-131.65c-.24-.5-2.37-1.32-2.85-1.18h0ZM238.56,360.72c.3-5.79.14-11.59.23-17.41.48-30.91.78-61.92.48-92.86-.07-7.43.32-14.95-.23-22.33-.1-1.35.47-2.86-.84-3.71l-.49.7c-.48,41.15-.29,82.37.38,123.48.06,3.5.17,7.64.22,11.05,0,.36.02.61.24,1.08h0ZM269.76,369.36v-5.76c-11.01,5.18-24.86,5.82-36.8,4.04-4.72-.7-9.11-1.89-13.48-3.8.22,2.54-.79,4.15.56,5.52.34.35.84.68,1.55,1.01,7.41,3.45,22.63,4.25,30.76,3.55,5.88-.51,12.17-1.84,17.4-4.56h.01ZM219.84,380.64v4.68c1.79,1.47,4.39,2.35,6.62,2.98,10.43,2.94,30.85,3.03,40.82-1.38.83-.37,1.75-.82,2.48-1.36v-5.4c-2.83,1.6-6,2.48-9.16,3.2-10.49,2.39-23.13,2.27-33.56-.43-2.44-.63-4.77-1.62-7.2-2.28h0ZM225.08,394.6c-1.11-.45-2.15-1.15-3.41-1.01-.55.15-.42,5.51-.4,6.39.06,2.29.23,5.13.52,7.4.33,2.62.96,5.39,2.49,7.59.57.1.3-.26.35-.6.28-2.07.43-4.62.5-6.7.14-4.34-.09-8.71-.05-13.05v-.02ZM231.36,416.16c.63-4.95.37-10,.47-15.01.02-1.07.7-4.83.02-5.52l-1.29-.37c-.59.12-.42,5.95-.4,6.87.1,4.1.28,9.12.72,13.2.04.36.05.74.49.83h-.01Z"></path><path d="M119.76,50.88c9.07,5.42,18.12,10.89,27.1,16.46,19.08,11.82,38.3,23.74,57.03,36.09,10.78,7.11,24.65,15.88,33.96,24.6,1.54,1.44,3.75,3.26,5.44,4.45.61,0,15.32-14.64,23.52-20.36,17.05-11.9,35.41-22.81,53.14-33.74,15.26-9.41,45.94-27.98,45.94-27.98l.36,21.84,13.68-6.72v13.2l12.48-5.28v10.8l13.44-5.52.02,9.38-130.63,55.25c-12.05,11.5-33.85,12.98-49.2,8.51-5.36-1.56-8.61-4.27-13.39-6.53-9.57-4.51-20.13-8.35-29.92-12.56-34.63-14.89-68.03-29.82-102.79-44.39v-9.17l13.2,5.52v-10.8l12.48,5.28v-13.2l14.16,6.72v-21.84h-.02ZM357.84,76.08v-10.08s-51.45,30.97-76.54,47.42c-9.81,6.43-21.99,14.31-29.9,22.9-.78.85-1.82,1.99-2.28,3l17.73-12.99c20.01-12.62,40.51-24.49,61.47-35.49,9.73-5.11,29.53-14.75,29.53-14.75h-.01ZM237.12,141.12c.73-.67-12.05-11.65-13.09-12.47-11.68-9.29-25.44-17.74-38.05-25.79-18.03-11.51-54.48-34.08-54.48-34.08l-3.34-1.82v9.73s43.11,22.49,63.91,34.71c12.26,7.21,24.48,14.69,36,23.04,2.66,1.93,5.2,4.21,7.87,6.05.23.16.96.82,1.17.63h0ZM374.64,74.16s-40.25,18.97-60,29.15c-15.13,7.8-31,16.04-45.24,25.32-4.06,2.64-10.75,6.88-14.04,10.2-.25.26-.57.41-.47.84,4.93-2.84,9.74-5.91,14.72-8.68,23.86-13.27,50.13-25.1,74.96-36.64,9.95-4.63,30.06-13.5,30.06-13.5l.03-6.69h-.02ZM110.88,74.64v6.6s26.99,12.64,40.41,19.11c23.27,11.22,46.54,22.56,69.2,34.96l11.84,7.24c-1.96-2.22-4.39-4.06-6.74-5.86-20.74-15.84-48.73-29.24-72.13-41.15-14.09-7.16-42.57-20.91-42.57-20.91h0ZM389.04,80.4s-36.17,15.51-54.16,23.48c-22.45,9.94-48.18,20.17-69.12,32.64-.68.41-1.6.81-2,1.48l125.28-52.44s0-5.16,0-5.16ZM96.48,80.88v5.4l128.4,55.2c-.35-.7-1.53-1.2-2.24-1.6-27.43-15.62-58.72-28.73-87.6-41.76-12.83-5.79-38.56-17.24-38.56-17.24Z"></path><path d="M124.32,322.32v-152.4c5.38,1.95,11.07,3.76,16.31,6.13,11.29,5.1,15.93,11.96,16.58,24.46.75,14.53-.09,30.22-.02,44.9.04,8.33.25,17.04.26,25.42.03,15.07.76,31.42,0,46.34-.58,11.3-6,15.39-16.93,11.63-5.47-1.88-10.62-4.84-16.2-6.48Z"></path><path d="M60.48,86.4v266.04l148.08,63.94V150.12L60.48,86.4ZM188.42,327.74c-1.26,30.05-20.72,38.09-47.42,28.43-15.61-5.65-31.72-13.16-47.16-19.56-2.77-1.15-5.61-2.15-8.39-3.26v.02c-.34-.47,3.58-4.73,4.11-5.75,1.94-3.68,4.06-7.55,4.29-11.79v-168.42c-1.23-9-5.4-12.97-8-20.48-.07-.2-.35-.58-.04-.68l64.91,26.29c22.82,10.21,36.38,28.29,37.7,53.74v121.46Z"></path><path d="M425.04,86.4l-144,60.83v268.45l144-63V86.4ZM401.06,297.01c-.9,23.77-11.27,39.9-31.53,51.75-23.33,13.65-62.34,24.38-67.81-13.39-1.17-41.86-.17-83.84-.52-125.74.28-29.7,19.8-51.74,46.51-61.97,9.43-3.61,18.95-5.43,29.09-4.01,1.94-2.46,1.56-4.68,4.26-6.43,1.03-.66,2.52-1.32,3.66-1.86,3.72-1.76,11.82-5.65,15.59-6.85.25-.08.46-.15.73-.11h0s0,63.23,0,63.23l-32.4,13.8c.08-2.92.14-5.85.23-8.77.16-5.09,1.03-12.92-.54-17.68-3.6-10.91-18.6-4.44-24.63.2-6.03,4.64-8.34,11.79-8.9,19.18.34,38.94-.57,77.97.26,116.88.02,1.12-.32,2.31-.27,3.61.62,15.51,15.26,12.58,24.71,6.69,5.26-3.28,8.64-8.21,9.58-14.42,1.41-9.28-.49-18.61.15-27.93l31.82-13.43v27.25Z"></path><style>@media (prefers-color-scheme: light) { :root { filter: none; } }
@media (prefers-color-scheme: dark) { :root { filter: invert(100%); } }
</style></svg>